<svg id="Layer_1" data-name="Layer 1" xmlns="http://www.w3.org/2000/svg" viewBox="0 0 22.53 15.62"><defs><style>.cls-1{fill:#fff;}</style></defs><title>Artboard 1</title><path id="icon_mail" data-name="icon mail" class="cls-1" d="M22.54,14.18a1.46,1.46,0,0,1-1.43,1.43H1.43A1.46,1.46,0,0,1,0,14.18V1.49A1.42,1.42,0,0,1,1.38.09L1.4,0H21.09l0,.08h0a1.42,1.42,0,0,1,1.43,1.4V14.18ZM0,15.61Zm0,0Zm20.8-3.46V3.47L15.11,7.81Zm0-10.4H1.74c3.17,2.39,6.34,4.78,9.52,7.2C14.43,6.53,17.6,4.14,20.8,1.75Zm0,12.12L13.93,8.69,12.11,10.1H10.37L8.58,8.72,1.74,13.87ZM7.41,7.81,1.74,3.47v8.68Z"/></svg>