<svg id="Layer_1" data-name="Layer 1" xmlns="http://www.w3.org/2000/svg" viewBox="0 0 17.53 12.31"><defs><style>.cls-1{fill:#fff;opacity:0.8;isolation:isolate;}</style></defs><title>Artboard 1</title><path id="icon_twitter" data-name="icon twitter" class="cls-1" d="M14,2l0,0a3.12,3.12,0,0,0-2.31-.83l0-.07h0A2.77,2.77,0,0,0,13.08.54c0-.16,0-.24-.19-.27a5.12,5.12,0,0,0-1.11.26c.42-.26.58-.44.49-.53a2.16,2.16,0,0,0-1.33.62.7.7,0,0,0,.2-.47,3.84,3.84,0,0,0-.59.48A9.06,9.06,0,0,0,9.7,1.68v0A9.06,9.06,0,0,0,8.5,4.36l-.09.07h0a4.26,4.26,0,0,0-1.23-1,14.45,14.45,0,0,0-2-1,17.43,17.43,0,0,0-2.57-1A2.47,2.47,0,0,0,4,3.57H4a3.46,3.46,0,0,0-1,.14c.06.86.7,1.46,1.91,1.79v0A1.41,1.41,0,0,0,3.76,6,2.13,2.13,0,0,0,5.88,7.07a1.47,1.47,0,0,0-.46.33.67.67,0,0,0-.19.66,1.19,1.19,0,0,0,1.19.53h0l0,0h0A4.52,4.52,0,0,1,2.82,10h0A4.64,4.64,0,0,1,0,8.8a8.57,8.57,0,0,0,4,3A9.84,9.84,0,0,0,9.66,12h0a9,9,0,0,0,4.66-3.12,6.21,6.21,0,0,0,1.11-2.37,2.33,2.33,0,0,0,2.07-.79v0a4.28,4.28,0,0,1-1.86-.1v-.1s0,0,0,0a1.92,1.92,0,0,0,1.8-.94,2.94,2.94,0,0,1-2.09,0A4.26,4.26,0,0,0,14,2Z"/></svg>